<svg width="1440" height="780" viewBox="0 0 1440 780" fill="none" xmlns="http://www.w3.org/2000/svg">
<g clip-path="url(#clip0_18_128)">
<rect width="1440" height="780" fill="#322E7F"/>
<rect x="140" y="30" width="168" height="40" rx="10" fill="#5D93BB"/>
<rect x="885" y="35" width="85" height="30" rx="10" fill="#5D93BB"/>
<rect x="995" y="35" width="85" height="30" rx="10" fill="#5D93BB"/>
<rect x="1105" y="35" width="85" height="30" rx="10" fill="#5D93BB"/>
<rect x="1215" y="35" width="85" height="30" rx="10" fill="#5D93BB"/>
<rect x="142" y="495" width="168" height="50" rx="10" fill="#5D93BB"/>
<rect x="340" y="495" width="168" height="50" rx="10" fill="#5D93BB"/>
<rect x="140" y="235" width="565" height="60" rx="30" fill="#5D93BB"/>
<rect x="140" y="315" width="466" height="30" rx="15" fill="#5D93BB"/>
<rect x="140" y="365" width="367" height="30" rx="15" fill="#5D93BB"/>
<rect x="140" y="415" width="397" height="30" rx="15" fill="#5D93BB"/>
<g clip-path="url(#clip1_18_128)">
<path d="M804.517 736.923L813.272 737.128L809.965 763.479L804.033 763.341L804.517 736.923Z" fill="#FFB6B6"/>
<path d="M824.387 775.578C824.387 774.862 824.011 774.215 823.429 773.931L816.895 770.74L812.44 760.525L812.372 750.233L803.193 749.166L801.865 755.722C801.865 755.722 804.599 755.319 801.224 758.216C797.849 761.112 799.474 766.779 799.474 766.779L798.738 777.372H804.813L805.139 770.784C809.864 772.766 811.023 777.372 811.023 777.372H822.798C823.676 777.372 824.387 776.568 824.387 775.578Z" fill="#2F2E41"/>
<path d="M817.342 737.213L826.097 737.418L822.79 763.769L816.857 763.631L817.342 737.213Z" fill="#FFB6B6"/>
<path d="M837.212 775.868C837.212 775.152 836.835 774.505 836.254 774.221L829.719 771.03L825.265 760.815L825.197 750.524L816.017 749.456L814.69 756.012C814.69 756.012 817.423 755.609 814.048 758.506C810.673 761.402 812.299 767.069 812.299 767.069L811.562 777.662H817.637L817.963 771.074C822.688 773.056 823.847 777.662 823.847 777.662H835.623C836.5 777.662 837.212 776.858 837.212 775.868Z" fill="#2F2E41"/>
<path d="M807.301 582.651L797.376 606.081C794.067 613.892 793.019 622.457 794.347 630.822L799.171 745.926H818.243L826.568 643.426L828.211 683.914L809.118 741.602H827.896L852 683.914L853.787 639.495L845.224 605.026L807.301 582.651Z" fill="#2F2E41"/>
<path d="M1076.19 482.396V423.872C1076.19 405.165 1060.85 390 1041.93 390H916.511C897.589 390 882.25 405.164 882.25 423.871V744.939C882.25 763.646 897.589 778.811 916.51 778.811H1041.92C1060.85 778.811 1076.18 763.646 1076.18 744.939V524.054C1077.38 524.054 1078.34 523.099 1078.34 521.921L1078.34 484.53C1078.34 483.351 1077.38 482.396 1076.19 482.396Z" fill="#3F3D56"/>
<path d="M1069.75 421.056V746.659C1049.73 745.443 1059.91 771.525 1043.78 772.345H915.789C901.437 772.347 889.801 760.848 889.796 746.659V421.056C889.801 406.867 901.437 395.368 915.788 395.37H925.227C922.656 401.62 943.401 403.653 944.992 403.655H1010.54C1017.36 403.646 1033.83 396.826 1033.23 395.37H1043.77C1058.12 395.372 1069.75 406.868 1069.75 421.051V421.056Z" fill="white"/>
<path d="M881.241 489.565C880.328 489.565 879.586 490.298 879.586 491.201V504.29C879.586 505.193 880.328 505.926 881.241 505.926C882.154 505.926 882.896 505.193 882.896 504.29V491.201C882.896 490.298 882.154 489.565 881.241 489.565Z" fill="#3F3D56"/>
<path d="M881.241 528.834C880.328 528.834 879.586 529.568 879.586 530.47V555.833C879.586 556.735 880.328 557.469 881.241 557.469C882.154 557.469 882.896 556.735 882.896 555.833V530.47C882.896 529.568 882.154 528.834 881.241 528.834Z" fill="#3F3D56"/>
<path d="M881.241 564.831C880.328 564.831 879.586 565.565 879.586 566.467V591.83C879.586 592.732 880.328 593.466 881.241 593.466C882.154 593.466 882.896 592.732 882.896 591.83V566.467C882.896 565.565 882.154 564.831 881.241 564.831Z" fill="#3F3D56"/>
<path d="M1271.6 758.116L1263.75 763.434L1239.26 736.016L1250.85 728.166L1271.6 758.116Z" fill="#FFB6B6"/>
<path d="M1244.57 776.164C1244.61 776.736 1245.39 778.138 1245.72 778.612C1246.73 780.067 1248.74 780.438 1250.21 779.441L1274.53 762.968C1275.54 762.288 1275.79 760.931 1275.1 759.938L1274.41 758.937C1274.41 758.937 1273.53 755.114 1268.48 753.083C1268.48 753.083 1267.42 758.072 1259.66 756.64L1256.62 755.129L1251.72 768.881L1246.74 773.23C1245.65 774.181 1244.48 774.729 1244.57 776.164Z" fill="#2F2E41"/>
<path d="M1213.7 772.234L1204.18 772.234L1199.65 735.932L1211.3 737.366L1213.7 772.234Z" fill="#FFB6B6"/>
<path d="M1181.08 772.021C1180.79 772.515 1180.63 774.108 1180.63 774.682C1180.63 776.446 1182.08 777.876 1183.86 777.876H1213.34C1214.56 777.876 1215.55 776.9 1215.55 775.697V774.483C1215.55 774.483 1217 770.836 1214 766.341C1214 766.341 1210.27 769.861 1204.69 764.348L1203.05 761.402L1191.15 770.009L1184.55 770.812C1183.1 770.988 1181.82 770.785 1181.08 772.021Z" fill="#2F2E41"/>
<path d="M1180.32 634.277L1181.04 642.837L1179.61 649.645L1182.21 656.822L1185.38 694.768L1201.93 760.191L1214.57 762.822L1208.5 697.471L1213.21 643.568L1180.32 634.277Z" fill="#2F2E41"/>
<path d="M1234.02 597.113L1185.69 597.777L1180.32 634.275L1213.21 649.538L1212.16 701.665L1248.79 754.083L1268.29 743.064L1235.61 698.549L1244.76 624.321L1234.02 597.113Z" fill="#2F2E41"/>
<path d="M1198.24 511.306L1189.72 522.125L1193.75 605.076L1225.29 604.412L1230.66 532.079L1223.95 513.498L1221.52 509.334L1218.62 503.942L1199.99 505.257L1198.24 511.306Z" fill="#E6E6E6"/>
<path d="M1185.65 562.605L1187.36 579.558L1185.26 599.067L1182.65 604.356L1176.66 625.397C1176.66 625.397 1170.55 634.599 1183.98 635.26C1197.4 635.922 1241.4 631.617 1241.4 631.617C1241.4 631.617 1246.89 631.483 1244.5 620.137C1240.64 613.574 1243.13 604.327 1243.13 604.327L1238.05 585.827L1239.39 568.574L1248.79 523.448C1240.44 516.963 1231.09 512.322 1220.93 509.179L1212.03 532.318L1198.78 511.17L1193.74 514.82C1186.95 516.58 1180.98 519.287 1176.25 523.447L1185.65 562.605Z" fill="#2F2E41"/>
<path d="M1026.33 522.355H931.601C925.108 522.348 919.846 517.146 919.838 510.726V470.469C919.846 464.049 925.108 458.847 931.601 458.84C961.828 450.56 993.531 451.336 1026.33 458.84C1032.82 458.847 1038.09 464.05 1038.09 470.469V510.726C1038.09 517.146 1032.82 522.348 1026.33 522.355Z" fill="#F2F2F2"/>
<path d="M1035.98 564.547H921.951C920.785 564.546 919.84 563.612 919.839 562.459V534.494C919.841 533.342 920.785 532.408 921.951 532.406H1035.98C1037.15 532.408 1038.09 533.342 1038.09 534.494V562.46C1038.09 563.612 1037.15 564.546 1035.98 564.547V564.547ZM921.951 533.242C921.251 533.242 920.684 533.803 920.684 534.494V562.46C920.684 563.151 921.251 563.712 921.951 563.712H1035.98C1036.68 563.712 1037.25 563.151 1037.25 562.46V534.494C1037.25 533.803 1036.68 533.242 1035.98 533.242H921.951Z" fill="#E6E6E6"/>
<path d="M957.216 542.629C956.399 542.646 955.751 543.314 955.769 544.121C955.785 544.904 956.423 545.535 957.216 545.551H1026.9C1027.72 545.582 1028.4 544.953 1028.43 544.147C1028.47 543.34 1027.83 542.661 1027.01 542.63H957.216V542.629Z" fill="#E6E6E6"/>
<path d="M957.216 551.399C956.399 551.416 955.751 552.085 955.769 552.892C955.785 553.675 956.423 554.306 957.216 554.322H1026.9C1027.72 554.353 1028.4 553.724 1028.43 552.917C1028.47 552.111 1027.83 551.432 1027.01 551.401H957.216V551.399Z" fill="#E6E6E6"/>
<path d="M937.64 554.323C940.906 554.323 943.553 551.706 943.553 548.477C943.553 545.249 940.906 542.631 937.64 542.631C934.375 542.631 931.727 545.249 931.727 548.477C931.727 551.706 934.375 554.323 937.64 554.323Z" fill="#E6E6E6"/>
<path d="M1035.98 701.811H921.951C920.785 701.81 919.84 700.876 919.839 699.723V671.758C919.841 670.606 920.785 669.672 921.951 669.671H1035.98C1037.15 669.672 1038.09 670.606 1038.09 671.758V699.724C1038.09 700.876 1037.15 701.81 1035.98 701.811V701.811ZM921.951 670.506C921.251 670.506 920.684 671.067 920.684 671.758V699.724C920.684 700.415 921.251 700.976 921.951 700.976L1023.03 699.991C1023.73 699.991 1034.33 696.08 1034.33 695.389L1037.25 671.758C1037.25 671.067 1036.68 670.506 1035.98 670.506H921.951Z" fill="#E6E6E6"/>
<path d="M957.215 684.061C956.399 684.044 955.723 684.685 955.706 685.492C955.689 686.299 956.336 686.967 957.153 686.984C957.174 686.984 957.194 686.984 957.215 686.984H1026.9C1027.72 687.015 1028.4 686.386 1028.43 685.579C1028.47 684.772 1027.83 684.093 1027.01 684.063H957.215V684.061Z" fill="#E6E6E6"/>
<path d="M937.64 691.587C940.906 691.587 943.553 688.97 943.553 685.741C943.553 682.512 940.906 679.895 937.64 679.895C934.375 679.895 931.727 682.512 931.727 685.741C931.727 688.97 934.375 691.587 937.64 691.587Z" fill="#E6E6E6"/>
<path d="M1035.98 643.948H921.951C920.785 643.947 919.84 643.013 919.839 641.86V613.895C919.841 612.743 920.785 611.809 921.951 611.807H1035.98C1037.15 611.809 1038.09 612.743 1038.09 613.895V641.861C1038.09 643.013 1037.15 643.947 1035.98 643.948V643.948ZM921.951 612.643C921.251 612.643 920.684 613.204 920.684 613.895V641.861C920.684 642.552 921.251 643.113 921.951 643.113L1023.03 642.128C1023.73 642.128 1034.33 638.217 1034.33 637.526L1037.25 613.895C1037.25 613.204 1036.68 612.643 1035.98 612.643H921.951Z" fill="#E6E6E6"/>
<path d="M957.215 626.198C956.399 626.181 955.723 626.822 955.706 627.629C955.689 628.436 956.336 629.104 957.153 629.121C957.174 629.122 957.194 629.122 957.215 629.121H1026.9C1027.72 629.152 1028.4 628.523 1028.43 627.716C1028.47 626.91 1027.83 626.231 1027.01 626.2H957.215V626.198Z" fill="#E6E6E6"/>
<path d="M937.64 633.724C940.906 633.724 943.553 631.107 943.553 627.878C943.553 624.65 940.906 622.032 937.64 622.032C934.375 622.032 931.727 624.65 931.727 627.878C931.727 631.107 934.375 633.724 937.64 633.724Z" fill="#E6E6E6"/>
<path d="M1207.65 503.176C1216.85 503.176 1224.31 495.801 1224.31 486.704C1224.31 477.608 1216.85 470.233 1207.65 470.233C1198.44 470.233 1190.99 477.608 1190.99 486.704C1190.99 495.801 1198.44 503.176 1207.65 503.176Z" fill="#FFB6B6"/>
<path d="M1219.88 500.237C1220.8 500.392 1221.88 498.193 1222.91 496.051C1225.06 491.568 1226.43 488.717 1226.53 484.689C1226.62 481.255 1225.66 482.156 1224.72 474.522C1224.41 472.005 1220.06 472.009 1219.17 470.814C1217.68 468.794 1219.97 467.961 1216.25 466.748C1209.28 464.476 1206.13 468.006 1201.7 468.31C1201.59 468.318 1199.4 470.44 1198.17 470.549C1196.02 470.742 1192.92 470.411 1191.54 467.176C1190.24 464.152 1189.38 472.99 1190.54 474.084C1191.52 475.012 1193.22 477.343 1193.27 477.513C1193.32 477.704 1189.22 473.224 1188.54 475.07C1188.05 476.399 1189.6 483.236 1190.85 483.493C1191.89 483.708 1194.45 480.302 1193.87 481.699C1192.53 484.938 1200.58 487.005 1210.2 480.503C1210.54 480.272 1210.22 480.64 1211.41 483.493C1212.91 487.091 1213.25 487.286 1213.23 488.277C1213.17 490.422 1211.54 491.054 1212.02 492.463C1212.4 493.604 1213.91 494.488 1215.04 494.257C1216.32 493.997 1216.54 492.435 1217.46 492.463C1218.25 492.487 1219.19 493.665 1219.28 494.855C1219.45 497.361 1215.7 498.05 1215.04 501.433C1214.67 503.342 1219.04 500.095 1219.88 500.237Z" fill="#2F2E41"/>
<path d="M1257.58 631.894C1257.66 630.049 1257.28 628.214 1256.49 626.543L1258.2 607.321L1248.93 606.781L1248.18 626.342C1247.31 627.972 1246.84 629.786 1246.82 631.632C1246.7 636.25 1249.02 640.051 1251.99 640.125C1254.96 640.199 1257.46 636.515 1257.58 631.898L1257.58 631.894Z" fill="#FFB6B6"/>
<path d="M1237.85 554.383L1245.16 576.74L1247.26 622.399L1259.51 622.152L1260.46 572.137C1260.46 572.137 1254.36 535.18 1252.31 526.873C1250.27 518.567 1231.42 521.645 1231.42 521.645L1237.85 554.383Z" fill="#2F2E41"/>
<path d="M934.4 496.097C937.86 497.233 941.487 498.383 945.18 498.189C946.861 498.1 948.477 497.704 950.002 496.999C951.565 496.276 952.994 495.295 954.577 494.61C960.393 492.093 966.161 496.393 971.586 498.006C974.292 498.812 977.138 499.004 979.785 497.883C982.71 496.644 984.916 494.279 987.325 492.305C992.724 487.879 999.769 485.493 1006.78 485.673C1014.46 485.871 1021.9 489.228 1027.2 494.719C1027.64 495.18 1028.35 494.481 1027.9 494.022C1023.28 489.223 1017.04 485.988 1010.41 485.007C1003.75 484.025 996.846 485.338 990.997 488.613C988.036 490.27 985.662 492.539 983.055 494.657C980.515 496.719 977.692 498.047 974.344 497.609C968.577 496.854 963.616 492.46 957.634 492.859C953.814 493.113 951.085 495.955 947.49 496.861C943.202 497.942 938.719 496.477 934.665 495.146C934.055 494.946 933.793 495.898 934.4 496.097Z" fill="#3F3D56"/>
<path d="M945.228 501.352C947.269 501.352 948.924 499.717 948.924 497.699C948.924 495.682 947.269 494.046 945.228 494.046C943.188 494.046 941.533 495.682 941.533 497.699C941.533 499.717 943.188 501.352 945.228 501.352Z" fill="#6C63FF"/>
<path d="M977.128 501.514C979.169 501.514 980.823 499.879 980.823 497.861C980.823 495.843 979.169 494.208 977.128 494.208C975.088 494.208 973.433 495.843 973.433 497.861C973.433 499.879 975.088 501.514 977.128 501.514Z" fill="#6C63FF"/>
<path d="M1009.52 489.121C1011.56 489.121 1013.22 487.486 1013.22 485.468C1013.22 483.451 1011.56 481.815 1009.52 481.815C1007.48 481.815 1005.83 483.451 1005.83 485.468C1005.83 487.486 1007.48 489.121 1009.52 489.121Z" fill="#6C63FF"/>
<path d="M795.111 612.213C784.186 642.967 798.105 667.196 795.217 651.567C792.803 638.504 833.939 598.757 846.321 606.953C846.062 605.626 838.192 581.712 837.42 581.601C838.499 578.914 836.995 578.888 836.934 577.511C836.7 572.193 837.95 566.673 840.386 560.991C841.982 556.601 842.01 552.83 840.463 549.789C839.132 547.289 836.895 545.378 834.201 544.438L826.087 534.75C823.974 532.228 820.856 526.787 817.544 526.808L799.765 526.18C799.257 525.878 793.014 531.186 786.935 533.79C780.342 536.618 781.702 544.334 781.719 544.433L781.734 544.525L781.807 544.591L791.497 572.791L800.253 580.904C799.81 582.175 799.921 583.13 800.751 583.678C799.559 584.55 794.254 610.641 795.111 611.555L795.111 612.213Z" fill="#6C63FF"/>
<path d="M886.468 556.402C885.146 556.924 883.97 557.751 883.037 558.814L868.957 563.586L871.45 570.143L885.464 564.596C886.884 564.695 888.308 564.455 889.615 563.898C892.905 562.548 894.869 559.776 893.999 557.706C893.129 555.636 889.759 555.052 886.468 556.402Z" fill="#FFB6B6"/>
<path d="M811.362 535.359L843.482 578.224L881.132 567.973L879.495 558.262L850.825 563.631L834.831 539.321C829.608 529.339 819.314 527.329 811.362 535.358V535.359Z" fill="#6C63FF"/>
<path d="M1042.05 751.504H1027.4C1024.84 751.504 1022.75 749.445 1022.75 746.914C1019.97 739.45 1019.62 732.755 1022.75 727.162C1022.75 724.631 1024.84 722.572 1027.4 722.572C1031.73 719.463 1036.78 720.407 1042.05 722.572C1044.61 722.572 1046.7 724.631 1046.7 727.162C1044.92 733.49 1045.05 740.093 1046.7 746.914C1046.7 749.445 1044.61 751.504 1042.05 751.504Z" fill="#6C63FF"/>
<path d="M1040.63 731.362H1028.8C1028.39 731.362 1028.06 731.035 1028.06 730.631C1028.06 730.227 1028.39 729.899 1028.8 729.899H1040.63C1041.04 729.899 1041.37 730.227 1041.37 730.631C1041.37 731.035 1041.04 731.362 1040.63 731.362Z" fill="white"/>
<path d="M1040.63 737.213H1028.8C1028.39 737.213 1028.06 736.886 1028.06 736.482C1028.06 736.078 1028.39 735.75 1028.8 735.75H1040.63C1041.04 735.75 1041.37 736.078 1041.37 736.482C1041.37 736.886 1041.04 737.213 1040.63 737.213Z" fill="white"/>
<path d="M1040.63 743.064H1028.8C1028.39 743.064 1028.06 742.737 1028.06 742.333C1028.06 741.929 1028.39 741.601 1028.8 741.601H1040.63C1041.04 741.601 1041.37 741.929 1041.37 742.333C1041.37 742.737 1041.04 743.064 1040.63 743.064Z" fill="white"/>
<path d="M1300 778.096H734V779.202H1300V778.096Z" fill="#E6E6E6"/>
<path d="M1175.74 630.36C1176.23 634.954 1179.01 638.433 1181.97 638.13C1184.93 637.827 1186.93 633.858 1186.45 629.264C1186.29 627.425 1185.68 625.653 1184.67 624.095L1182.39 604.651L1173.18 605.906L1176.41 624.937C1175.75 626.664 1175.52 628.522 1175.74 630.356L1175.74 630.36Z" fill="#FFB6B6"/>
<path d="M1189.29 551.558L1193.11 518.423C1193.11 518.423 1174.08 516.81 1172.7 525.249C1171.32 533.688 1168.15 571.004 1168.15 571.004L1173.05 620.792L1185.28 620.093L1183.77 574.411L1189.29 551.558Z" fill="#2F2E41"/>
<path d="M821.688 522.531L795.976 524.846L795.217 498.425L823.228 497.639L821.688 522.531Z" fill="#2F2E41"/>
<path d="M808.686 518.985C816.138 518.985 822.179 513.012 822.179 505.644C822.179 498.277 816.138 492.304 808.686 492.304C801.233 492.304 795.192 498.277 795.192 505.644C795.192 513.012 801.233 518.985 808.686 518.985Z" fill="#FFB6B6"/>
<path d="M819.54 492.645C819.445 489.335 815.279 488.977 812.033 488.16L809.089 486.65C806.2 485.923 803.135 486.434 800.647 488.058L792.799 492.759C789.274 495.06 788.715 498.779 787.282 502.706L784.688 508.455C783.277 512.322 785.141 517.445 786.567 521.305L787.165 522.923L786.231 528.218L802.586 527.463L804.04 519.289L801.248 516.186C800.258 515.085 800.177 513.45 801.055 512.26C804.214 507.977 803.628 501.974 803.628 501.974L807.625 504.13C810.251 504.484 812.591 504.445 814.651 504.02C816.915 503.552 818.84 502.616 820.43 501.222L821.855 505.96C822.222 511.858 821.108 513.423 815.791 519.192L825.115 524.979L824.77 521.847C823.95 514.397 826.45 508.522 826.1 502.459C825.857 498.266 823.335 494.531 819.54 492.645Z" fill="#2F2E41"/>
<path d="M821.774 605.132C820.456 604.599 819.029 604.385 817.611 604.509L804.132 598.268L801.316 604.696L815.292 610.335C816.244 611.381 817.436 612.187 818.768 612.684C822.083 613.974 825.443 613.33 826.273 611.243C827.102 609.157 825.088 606.422 821.774 605.132Z" fill="#FFB6B6"/>
<path d="M782.552 538.401L775.523 591.293L809.803 609.787L815.451 601.679L791.06 585.844L796.645 557.373C799.904 546.607 793.914 538.09 782.552 538.401L782.552 538.401Z" fill="#6C63FF"/>
</g>
</g>
<defs>
<clipPath id="clip0_18_128">
<rect width="1440" height="780" fill="white"/>
</clipPath>
<clipPath id="clip1_18_128">
<rect width="565" height="390" fill="white" transform="translate(735 390)"/>
</clipPath>
</defs>
</svg>
